<?xml version="1.0" encoding="utf-8" ?>
<svg baseProfile="tiny" height="512px" version="1.2" width="512px" xmlns="http://www.w3.org/2000/svg" xmlns:ev="http://www.w3.org/2001/xml-events" xmlns:xlink="http://www.w3.org/1999/xlink"><defs /><polygon fill="rgb(42,124,178)" points="121.9008,341.4713 255.6276,141.0199 364.3777,357.282" stroke="rgb(42,124,178)" stroke-width="2" /><polygon fill="rgb(37,109,157)" points="255.6276,141.0199 456.8502,162.0627 364.3777,357.282" stroke="rgb(37,109,157)" stroke-width="2" /><polygon fill="rgb(48,142,205)" points="255.6276,141.0199 121.9008,341.4713 64.5143,136.4806" stroke="rgb(48,142,205)" stroke-width="2" /><polygon fill="rgb(20,60,86)" points="364.3777,357.282 240.4756,486.4 121.9008,341.4713" stroke="rgb(20,60,86)" stroke-width="2" /><polygon fill="rgb(40,119,171)" points="456.8502,162.0627 255.6276,141.0199 271.5244,25.6" stroke="rgb(40,119,171)" stroke-width="2" /><polygon fill="rgb(47,139,201)" points="271.5244,25.6 255.6276,141.0199 64.5143,136.4806" stroke="rgb(47,139,201)" stroke-width="2" /><polygon fill="rgb(15,45,65)" points="447.4857,375.5194 364.3777,357.282 456.8502,162.0627" stroke="rgb(15,45,65)" stroke-width="2" /><polygon fill="rgb(30,90,129)" points="55.1498,349.9373 64.5143,136.4806 121.9008,341.4713" stroke="rgb(30,90,129)" stroke-width="2" /><polygon fill="rgb(15,45,65)" points="447.4857,375.5194 240.4756,486.4 364.3777,357.282" stroke="rgb(15,45,65)" stroke-width="2" /><polygon fill="rgb(15,45,65)" points="55.1498,349.9373 121.9008,341.4713 240.4756,486.4" stroke="rgb(15,45,65)" stroke-width="2" /></svg>