<?xml version="1.0" encoding="utf-8" ?>
<svg baseProfile="tiny" height="512px" version="1.2" width="512px" xmlns="http://www.w3.org/2000/svg" xmlns:ev="http://www.w3.org/2001/xml-events" xmlns:xlink="http://www.w3.org/1999/xlink"><defs /><polygon fill="rgb(47,138,199)" points="109.9077,135.9935 270.7535,123.7564 328.8891,280.7713 203.9728,390.0492 68.635,300.5714" stroke="rgb(47,138,199)" stroke-width="2" /><polygon fill="rgb(35,104,150)" points="476.8421,170.3779 456.2589,309.5848 328.8891,280.7713 270.7535,123.7564 362.1934,55.5298" stroke="rgb(35,104,150)" stroke-width="2" /><polygon fill="rgb(17,51,74)" points="203.9728,390.0492 328.8891,280.7713 456.2589,309.5848 410.0607,436.6701 254.1396,486.4" stroke="rgb(17,51,74)" stroke-width="2" /><polygon fill="rgb(45,133,192)" points="362.1934,55.5298 270.7535,123.7564 109.9077,135.9935 101.9393,75.3299 257.8604,25.6" stroke="rgb(45,133,192)" stroke-width="2" /><polygon fill="rgb(16,47,68)" points="68.635,300.5714 203.9728,390.0492 254.1396,486.4 149.8066,456.4702 35.1579,341.6221" stroke="rgb(16,47,68)" stroke-width="2" /><polygon fill="rgb(33,98,141)" points="35.1579,341.6221 55.7411,202.4152 101.9393,75.3299 109.9077,135.9935 68.635,300.5714" stroke="rgb(33,98,141)" stroke-width="2" /></svg>